<?xml version="1.0" encoding="UTF-8"?>
<!-- Generator: Adobe Illustrator 16.0.0, SVG Export Plug-In . SVG Version: 6.00 Build 0)  -->
<!DOCTYPE svg PUBLIC "-//W3C//DTD SVG 1.1//EN" "http://www.w3.org/Graphics/SVG/1.1/DTD/svg11.dtd">
<svg version="1.1" id="Layer_1" xmlns="http://www.w3.org/2000/svg" xmlns:xlink="http://www.w3.org/1999/xlink" x="0px" y="0px" width="52px" height="52px" viewBox="0 0 52 52" enable-background="new 0 0 52 52" xml:space="preserve">
<g>
	<g>
		<g>
			<path fill="#999999" d="M26,51c-8.388,0-15.783-2.185-19.299-5.7C3.185,41.784,1,34.388,1,26c0-8.388,2.185-15.783,5.701-19.299     C10.218,3.185,17.613,1,26.002,1c8.388,0,15.784,2.184,19.299,5.701c7.573,7.575,7.573,31.022,0,38.6     C41.784,48.816,34.388,51,26,51z"/>
			<g>
				<path fill="#999999" d="M26.002,2c8.133,0,15.257,2.072,18.592,5.408S50,17.868,50,26C50,34.132,47.928,41.257,44.594,44.592      C41.257,47.928,34.132,50,26,50c-8.132,0-15.256-2.071-18.592-5.406C4.073,41.257,2,34.132,2,26      c0-8.133,2.072-15.256,5.408-18.592S17.869,2,26.002,2 M26.002,0C17.996,0,9.99,1.998,5.994,5.994      c-7.993,7.99-7.991,32.021,0,40.014C9.99,50.002,17.995,52,26,52c8.005,0,16.011-1.997,20.008-5.992      c7.988-7.992,7.99-32.022,0-40.014C42.013,1.998,34.007,0,26.002,0L26.002,0z"/>
			</g>
		</g>
	</g>
</g>
</svg>